<svg width="20" height="20" viewBox="0 0 20 20" fill="none" xmlns="http://www.w3.org/2000/svg">
<path d="M9.99563 12.5C10.2069 12.5 10.3854 12.4285 10.5313 12.2856C10.6771 12.1427 10.75 11.9656 10.75 11.7544C10.75 11.5431 10.6785 11.3646 10.5356 11.2188C10.3927 11.0729 10.2156 11 10.0044 11C9.79313 11 9.61458 11.0715 9.46875 11.2144C9.32292 11.3573 9.25 11.5344 9.25 11.7456C9.25 11.9569 9.32146 12.1354 9.46438 12.2813C9.60729 12.4271 9.78438 12.5 9.99563 12.5ZM9.25 10H10.75V4.5H9.25V10ZM2 18V3.5C2 3.0875 2.14688 2.73438 2.44063 2.44063C2.73438 2.14688 3.0875 2 3.5 2H16.5C16.9125 2 17.2656 2.14688 17.5594 2.44063C17.8531 2.73438 18 3.0875 18 3.5V13.5C18 13.9125 17.8531 14.2656 17.5594 14.5594C17.2656 14.8531 16.9125 15 16.5 15H5L2 18ZM4.375 13.5H16.5V3.5H3.5V14.375L4.375 13.5Z" fill="black"/>
</svg>
