<svg width="96" height="14" viewBox="0 0 96 14" fill="none" xmlns="http://www.w3.org/2000/svg">
<path d="M11.5376 5.04972H9.14702C9.07884 4.65767 8.95312 4.31037 8.76989 4.00781C8.58665 3.70099 8.35866 3.44105 8.08594 3.22798C7.81321 3.01491 7.50213 2.85511 7.1527 2.74858C6.80753 2.63778 6.43466 2.58239 6.03409 2.58239C5.32244 2.58239 4.69176 2.76136 4.14205 3.11932C3.59233 3.47301 3.16193 3.9929 2.85085 4.67898C2.53977 5.3608 2.38423 6.19389 2.38423 7.17827C2.38423 8.17969 2.53977 9.02344 2.85085 9.70952C3.16619 10.3913 3.59659 10.907 4.14205 11.2564C4.69176 11.6016 5.32031 11.7741 6.0277 11.7741C6.41974 11.7741 6.78622 11.723 7.12713 11.6207C7.4723 11.5142 7.78125 11.3587 8.05398 11.1541C8.33097 10.9496 8.56321 10.6982 8.75071 10.3999C8.94247 10.1016 9.07457 9.76065 9.14702 9.37713L11.5376 9.38992C11.4482 10.0121 11.2543 10.5959 10.956 11.1413C10.6619 11.6868 10.2763 12.1683 9.79901 12.5859C9.32173 12.9993 8.7635 13.3232 8.12429 13.5575C7.48509 13.7876 6.77557 13.9027 5.99574 13.9027C4.84517 13.9027 3.81818 13.6364 2.91477 13.1037C2.01136 12.571 1.29972 11.8018 0.77983 10.7962C0.259943 9.79048 0 8.58452 0 7.17827C0 5.76776 0.262074 4.56179 0.786222 3.56037C1.31037 2.55469 2.02415 1.78551 2.92756 1.25284C3.83097 0.72017 4.85369 0.453835 5.99574 0.453835C6.72443 0.453835 7.40199 0.556108 8.02841 0.760653C8.65483 0.965199 9.21307 1.26563 9.70312 1.66193C10.1932 2.05398 10.5959 2.53551 10.9112 3.10653C11.2308 3.6733 11.4396 4.32102 11.5376 5.04972Z" fill="black"/>
<path d="M19.8649 9.59446V3.90554H22.1788V13.7237H19.9352V11.9787H19.8329C19.6113 12.5284 19.247 12.978 18.7399 13.3274C18.237 13.6768 17.617 13.8516 16.8798 13.8516C16.2363 13.8516 15.6674 13.7088 15.1731 13.4233C14.6831 13.1335 14.2995 12.7138 14.0225 12.1641C13.7456 11.6101 13.6071 10.9411 13.6071 10.157V3.90554H15.921V9.79901C15.921 10.4212 16.0914 10.9155 16.4324 11.282C16.7733 11.6484 17.2207 11.8317 17.7747 11.8317C18.1156 11.8317 18.4458 11.7486 18.7654 11.5824C19.0851 11.4162 19.3471 11.169 19.5517 10.8409C19.7605 10.5085 19.8649 10.093 19.8649 9.59446Z" fill="black"/>
<path d="M24.5582 13.7237V3.90554H26.8018V5.5419H26.9041C27.0831 4.97514 27.3899 4.53835 27.8246 4.23153C28.2635 3.92045 28.7642 3.76491 29.3267 3.76491C29.4545 3.76491 29.5973 3.77131 29.755 3.78409C29.9169 3.79261 30.0511 3.80753 30.1577 3.82884V5.95739C30.0597 5.9233 29.9041 5.89347 29.6911 5.8679C29.4822 5.83807 29.2798 5.82315 29.0838 5.82315C28.6619 5.82315 28.2827 5.91477 27.946 6.09801C27.6136 6.27699 27.3516 6.52628 27.1598 6.84588C26.968 7.16548 26.8722 7.53409 26.8722 7.9517V13.7237H24.5582Z" fill="black"/>
<path d="M37.125 3.90554V5.69531H31.4808V3.90554H37.125ZM32.8743 1.55327H35.1882V10.7706C35.1882 11.0817 35.2351 11.3203 35.3288 11.4865C35.4268 11.6484 35.5547 11.7592 35.7124 11.8189C35.87 11.8786 36.0447 11.9084 36.2365 11.9084C36.3814 11.9084 36.5135 11.8977 36.6328 11.8764C36.7564 11.8551 36.8501 11.8359 36.9141 11.8189L37.304 13.6278C37.1804 13.6705 37.0036 13.7173 36.7734 13.7685C36.5476 13.8196 36.2706 13.8494 35.9425 13.858C35.3629 13.875 34.8409 13.7876 34.3764 13.5959C33.9119 13.3999 33.5433 13.0973 33.2706 12.6882C33.0021 12.2791 32.87 11.7678 32.8743 11.1541V1.55327Z" fill="black"/>
<path d="M41.8855 13.9219C41.2633 13.9219 40.7029 13.8111 40.2044 13.5895C39.71 13.3636 39.318 13.0312 39.0282 12.5923C38.7427 12.1534 38.6 11.6122 38.6 10.9688C38.6 10.4148 38.7022 9.95668 38.9068 9.59446C39.1113 9.23224 39.3904 8.94247 39.7441 8.72514C40.0978 8.50781 40.4963 8.34375 40.9395 8.23295C41.3869 8.1179 41.8493 8.0348 42.3265 7.98366C42.9018 7.92401 43.3684 7.87074 43.7264 7.82386C44.0843 7.77273 44.3443 7.69602 44.5062 7.59375C44.6724 7.48722 44.7555 7.32315 44.7555 7.10156V7.06321C44.7555 6.58168 44.6127 6.20881 44.3272 5.9446C44.0417 5.6804 43.6305 5.5483 43.0936 5.5483C42.5268 5.5483 42.0772 5.67188 41.7449 5.91903C41.4167 6.16619 41.1951 6.4581 41.0801 6.79474L38.9196 6.48793C39.09 5.89134 39.3713 5.39276 39.7633 4.99219C40.1554 4.58736 40.6348 4.2848 41.2015 4.08452C41.7683 3.87997 42.3947 3.7777 43.0808 3.7777C43.5538 3.7777 44.0247 3.8331 44.4934 3.94389C44.9622 4.05469 45.3904 4.23793 45.7782 4.49361C46.166 4.74503 46.4771 5.08807 46.7115 5.52273C46.9501 5.95739 47.0694 6.50071 47.0694 7.1527V13.7237H44.845V12.375H44.7683C44.6277 12.6477 44.4295 12.9034 44.1738 13.142C43.9224 13.3764 43.6049 13.5661 43.2214 13.7109C42.8422 13.8516 42.3968 13.9219 41.8855 13.9219ZM42.4863 12.2216C42.9508 12.2216 43.3535 12.13 43.6944 11.9467C44.0353 11.7592 44.2974 11.5121 44.4806 11.2053C44.6681 10.8984 44.7619 10.5639 44.7619 10.2017V9.04474C44.6895 9.1044 44.5659 9.1598 44.3912 9.21094C44.2207 9.26207 44.0289 9.30682 43.8159 9.34517C43.6028 9.38352 43.3919 9.41761 43.1831 9.44744C42.9743 9.47727 42.7931 9.50284 42.6397 9.52415C42.2946 9.57102 41.9856 9.64773 41.7129 9.75426C41.4402 9.8608 41.225 10.0099 41.0673 10.2017C40.9096 10.3892 40.8308 10.6321 40.8308 10.9304C40.8308 11.3565 40.9863 11.6783 41.2974 11.8956C41.6085 12.1129 42.0048 12.2216 42.4863 12.2216Z" fill="black"/>
<path d="M49.3961 13.7237V3.90554H51.71V13.7237H49.3961ZM50.5595 2.51207C50.193 2.51207 49.8777 2.39063 49.6135 2.14773C49.3493 1.90057 49.2172 1.6044 49.2172 1.25923C49.2172 0.909801 49.3493 0.613636 49.6135 0.370738C49.8777 0.123579 50.193 0 50.5595 0C50.9302 0 51.2456 0.123579 51.5055 0.370738C51.7697 0.613636 51.9018 0.909801 51.9018 1.25923C51.9018 1.6044 51.7697 1.90057 51.5055 2.14773C51.2456 2.39063 50.9302 2.51207 50.5595 2.51207Z" fill="black"/>
<path d="M56.4034 7.97088V13.7237H54.0895V3.90554H56.3011V5.57386H56.4162C56.642 5.02415 57.0021 4.58736 57.4964 4.26349C57.995 3.93963 58.6108 3.7777 59.3438 3.7777C60.0213 3.7777 60.6115 3.92259 61.1143 4.21236C61.6214 4.50213 62.0135 4.92188 62.2905 5.47159C62.5717 6.02131 62.7102 6.68821 62.706 7.4723V13.7237H60.392V7.83026C60.392 7.17401 60.2216 6.66051 59.8807 6.28977C59.544 5.91903 59.0774 5.73366 58.4808 5.73366C58.076 5.73366 57.7159 5.82315 57.4006 6.00213C57.0895 6.17685 56.8445 6.4304 56.6655 6.76278C56.4908 7.09517 56.4034 7.49787 56.4034 7.97088Z" fill="black"/>
<path d="M76.3658 5.04972H73.9751C73.907 4.65767 73.7812 4.31037 73.598 4.00781C73.4148 3.70099 73.1868 3.44105 72.9141 3.22798C72.6413 3.01491 72.3303 2.85511 71.9808 2.74858C71.6357 2.63778 71.2628 2.58239 70.8622 2.58239C70.1506 2.58239 69.5199 2.76136 68.9702 3.11932C68.4205 3.47301 67.9901 3.9929 67.679 4.67898C67.3679 5.3608 67.2124 6.19389 67.2124 7.17827C67.2124 8.17969 67.3679 9.02344 67.679 9.70952C67.9943 10.3913 68.4247 10.907 68.9702 11.2564C69.5199 11.6016 70.1484 11.7741 70.8558 11.7741C71.2479 11.7741 71.6143 11.723 71.9553 11.6207C72.3004 11.5142 72.6094 11.3587 72.8821 11.1541C73.1591 10.9496 73.3913 10.6982 73.5788 10.3999C73.7706 10.1016 73.9027 9.76065 73.9751 9.37713L76.3658 9.38992C76.2763 10.0121 76.0824 10.5959 75.7841 11.1413C75.4901 11.6868 75.1044 12.1683 74.6271 12.5859C74.1499 12.9993 73.5916 13.3232 72.9524 13.5575C72.3132 13.7876 71.6037 13.9027 70.8239 13.9027C69.6733 13.9027 68.6463 13.6364 67.7429 13.1037C66.8395 12.571 66.1278 11.8018 65.608 10.7962C65.0881 9.79048 64.8281 8.58452 64.8281 7.17827C64.8281 5.76776 65.0902 4.56179 65.6143 3.56037C66.1385 2.55469 66.8523 1.78551 67.7557 1.25284C68.6591 0.72017 69.6818 0.453835 70.8239 0.453835C71.5526 0.453835 72.2301 0.556108 72.8565 0.760653C73.483 0.965199 74.0412 1.26563 74.5312 1.66193C75.0213 2.05398 75.424 2.53551 75.7393 3.10653C76.059 3.6733 76.2678 4.32102 76.3658 5.04972Z" fill="black"/>
<path d="M81.2605 13.9219C80.6383 13.9219 80.0779 13.8111 79.5794 13.5895C79.0851 13.3636 78.693 13.0312 78.4032 12.5923C78.1177 12.1534 77.975 11.6122 77.975 10.9688C77.975 10.4148 78.0772 9.95668 78.2818 9.59446C78.4863 9.23224 78.7654 8.94247 79.1191 8.72514C79.4728 8.50781 79.8713 8.34375 80.3145 8.23295C80.7619 8.1179 81.2243 8.0348 81.7015 7.98366C82.2768 7.92401 82.7434 7.87074 83.1014 7.82386C83.4593 7.77273 83.7193 7.69602 83.8812 7.59375C84.0474 7.48722 84.1305 7.32315 84.1305 7.10156V7.06321C84.1305 6.58168 83.9878 6.20881 83.7022 5.9446C83.4167 5.6804 83.0055 5.5483 82.4686 5.5483C81.9018 5.5483 81.4522 5.67188 81.1199 5.91903C80.7917 6.16619 80.5701 6.4581 80.4551 6.79474L78.2946 6.48793C78.465 5.89134 78.7463 5.39276 79.1383 4.99219C79.5304 4.58736 80.0098 4.2848 80.5765 4.08452C81.1433 3.87997 81.7697 3.7777 82.4558 3.7777C82.9288 3.7777 83.3997 3.8331 83.8684 3.94389C84.3372 4.05469 84.7654 4.23793 85.1532 4.49361C85.541 4.74503 85.8521 5.08807 86.0865 5.52273C86.3251 5.95739 86.4444 6.50071 86.4444 7.1527V13.7237H84.22V12.375H84.1433C84.0027 12.6477 83.8045 12.9034 83.5488 13.142C83.2974 13.3764 82.9799 13.5661 82.5964 13.7109C82.2171 13.8516 81.7718 13.9219 81.2605 13.9219ZM81.8613 12.2216C82.3258 12.2216 82.7285 12.13 83.0694 11.9467C83.4103 11.7592 83.6724 11.5121 83.8556 11.2053C84.0431 10.8984 84.1369 10.5639 84.1369 10.2017V9.04474C84.0645 9.1044 83.9409 9.1598 83.7662 9.21094C83.5957 9.26207 83.4039 9.30682 83.1909 9.34517C82.9778 9.38352 82.7669 9.41761 82.5581 9.44744C82.3493 9.47727 82.1682 9.50284 82.0147 9.52415C81.6696 9.57102 81.3606 9.64773 81.0879 9.75426C80.8152 9.8608 80.6 10.0099 80.4423 10.2017C80.2846 10.3892 80.2058 10.6321 80.2058 10.9304C80.2058 11.3565 80.3613 11.6783 80.6724 11.8956C80.9835 12.1129 81.3798 12.2216 81.8613 12.2216Z" fill="black"/>
<path d="M91.0851 0.632812V13.7237H88.7711V0.632812H91.0851Z" fill="black"/>
<path d="M95.7784 0.632812V13.7237H93.4645V0.632812H95.7784Z" fill="black"/>
</svg>
