<svg width="20" height="20" viewBox="0 0 20 20" fill="none" xmlns="http://www.w3.org/2000/svg">
<path d="M10 13C10.8333 13 11.5417 12.7083 12.125 12.125C12.7083 11.5417 13 10.8333 13 10C13 9.16667 12.7083 8.45833 12.125 7.875C11.5417 7.29167 10.8333 7 10 7C9.16666 7 8.45833 7.29167 7.875 7.875C7.29166 8.45833 7 9.16667 7 10C7 10.8333 7.29166 11.5417 7.875 12.125C8.45833 12.7083 9.16666 13 10 13Z" fill="#0D0D0D"/>
<path fill-rule="evenodd" clip-rule="evenodd" d="M8.39583 18L7.9375 15.625C7.61805 15.5 7.30902 15.3542 7.01041 15.1875C6.7118 15.0208 6.43055 14.8264 6.16666 14.6042L3.87499 15.375L2.27083 12.6042L4.08333 11.0208C4.05555 10.8542 4.03472 10.6875 4.02083 10.5208C4.00694 10.3542 3.99999 10.1806 3.99999 10C3.99999 9.81944 4.00694 9.64583 4.02083 9.47917C4.03472 9.3125 4.05555 9.14583 4.08333 8.97917L2.27083 7.39583L3.87499 4.625L6.16666 5.39583C6.43055 5.17361 6.7118 4.97917 7.01041 4.8125C7.30902 4.64583 7.61805 4.5 7.9375 4.375L8.39583 2H11.6042L12.0625 4.375C12.3819 4.5 12.691 4.64583 12.9896 4.8125C13.2882 4.97917 13.5694 5.17361 13.8333 5.39583L16.125 4.625L17.7292 7.39583L15.9167 8.97917C15.9444 9.14583 15.9653 9.3125 15.9792 9.47917C15.9931 9.64583 16 9.81944 16 10C16 10.1806 15.9931 10.3542 15.9792 10.5208C15.9653 10.6875 15.9444 10.8542 15.9167 11.0208L17.7292 12.6042L16.125 15.375L13.8333 14.6042C13.5694 14.8264 13.2882 15.0208 12.9896 15.1875C12.691 15.3542 12.3819 15.5 12.0625 15.625L11.6042 18H8.39583ZM10.375 16.5H9.625L9.22916 14.4375C8.70138 14.3403 8.20833 14.1597 7.75 13.8958C7.29166 13.6319 6.89583 13.2986 6.5625 12.8958L4.56249 13.5625L4.18749 12.9375L5.77083 11.5417C5.68749 11.3056 5.62152 11.059 5.57291 10.8021C5.5243 10.5451 5.49999 10.2778 5.49999 10C5.49999 9.72222 5.5243 9.45486 5.57291 9.19792C5.62152 8.94097 5.68749 8.69444 5.77083 8.45833L4.18749 7.0625L4.56249 6.4375L6.5625 7.10417C6.89583 6.70139 7.29166 6.36806 7.75 6.10417C8.20833 5.84028 8.70138 5.65972 9.22916 5.5625L9.625 3.5H10.375L10.7708 5.5625C11.2986 5.65972 11.7917 5.84028 12.25 6.10417C12.7083 6.36806 13.1042 6.70139 13.4375 7.10417L15.4375 6.4375L15.8125 7.0625L14.2292 8.45833C14.3125 8.69444 14.3785 8.94097 14.4271 9.19792C14.4757 9.45486 14.5 9.72222 14.5 10C14.5 10.2778 14.4757 10.5451 14.4271 10.8021C14.3785 11.059 14.3125 11.3056 14.2292 11.5417L15.8125 12.9375L15.4375 13.5625L13.4375 12.8958C13.1042 13.2986 12.7083 13.6319 12.25 13.8958C11.7917 14.1597 11.2986 14.3403 10.7708 14.4375L10.375 16.5Z" fill="#0D0D0D"/>
</svg>
