<svg width="20" height="20" viewBox="0 0 20 20" fill="none" xmlns="http://www.w3.org/2000/svg">
<path d="M9.875 15.625L12 13.5L9.89583 11.375L9.1875 12.0833L10.0625 12.9792C9.65972 12.9792 9.26736 12.9097 8.88542 12.7708C8.50347 12.6319 8.16667 12.4167 7.875 12.125C7.59722 11.8472 7.38194 11.5243 7.22917 11.1563C7.07639 10.7882 7 10.4028 7 10C7 9.77778 7.02083 9.5625 7.0625 9.35417C7.10417 9.14583 7.16667 8.94444 7.25 8.75L6.52083 8.02083C6.35417 8.32639 6.22569 8.64236 6.13542 8.96875C6.04514 9.29514 6 9.63889 6 10C6 10.5278 6.10069 11.0382 6.30208 11.5313C6.50347 12.0243 6.79167 12.4583 7.16667 12.8333C7.56944 13.2361 8.01736 13.5313 8.51042 13.7188C9.00347 13.9063 9.52778 14 10.0833 14L9.16667 14.9167L9.875 15.625ZM13.4792 11.9792C13.6458 11.6736 13.7743 11.3576 13.8646 11.0313C13.9549 10.7049 14 10.3611 14 10C14 9.47222 13.8958 8.96181 13.6875 8.46875C13.4792 7.97569 13.1875 7.54167 12.8125 7.16667C12.4236 6.77778 11.9722 6.48958 11.4583 6.30208C10.9444 6.11458 10.4167 6.02778 9.875 6.04167L10.8333 5.08333L10.125 4.375L8 6.5L10.125 8.625L10.8333 7.91667L9.91667 7C10.3472 7 10.7465 7.06944 11.1146 7.20833C11.4826 7.34722 11.8194 7.56944 12.125 7.875C12.4028 8.15278 12.6181 8.47569 12.7708 8.84375C12.9236 9.21181 13 9.59722 13 10C13 10.2222 12.9792 10.4375 12.9375 10.6458C12.8958 10.8542 12.8333 11.0556 12.75 11.25L13.4792 11.9792ZM10 18C8.90278 18 7.86806 17.7917 6.89583 17.375C5.92361 16.9583 5.07292 16.3854 4.34375 15.6563C3.61458 14.9271 3.04167 14.0764 2.625 13.1042C2.20833 12.1319 2 11.0972 2 10C2 8.88889 2.20833 7.85069 2.625 6.88542C3.04167 5.92014 3.61458 5.07292 4.34375 4.34375C5.07292 3.61458 5.92361 3.04167 6.89583 2.625C7.86806 2.20833 8.90278 2 10 2C11.1111 2 12.1493 2.20833 13.1146 2.625C14.0799 3.04167 14.9271 3.61458 15.6563 4.34375C16.3854 5.07292 16.9583 5.92014 17.375 6.88542C17.7917 7.85069 18 8.88889 18 10C18 11.0972 17.7917 12.1319 17.375 13.1042C16.9583 14.0764 16.3854 14.9271 15.6563 15.6563C14.9271 16.3854 14.0799 16.9583 13.1146 17.375C12.1493 17.7917 11.1111 18 10 18ZM10 16.5C11.8056 16.5 13.3403 15.8681 14.6042 14.6042C15.8681 13.3403 16.5 11.8056 16.5 10C16.5 8.19444 15.8681 6.65972 14.6042 5.39583C13.3403 4.13194 11.8056 3.5 10 3.5C8.19444 3.5 6.65972 4.13194 5.39583 5.39583C4.13194 6.65972 3.5 8.19444 3.5 10C3.5 11.8056 4.13194 13.3403 5.39583 14.6042C6.65972 15.8681 8.19444 16.5 10 16.5Z" fill="#0D0D0D"/>
</svg>
